/* XPM */
static char *ac3591d870614eff98c5bb9157fe02c2BhyVfCY9KhaOTJ7h[] = {
/* columns rows colors chars-per-pixel */
"30 30 216 2 ",
"   c #100B08",
".  c #19120D",
"X  c #1D1613",
"o  c #20140D",
"O  c #261C18",
"+  c #371C19",
"@  c #24221A",
"#  c #2B241D",
"$  c #31231D",
"%  c #31291F",
"&  c #171E2D",
"*  c #1B202B",
"=  c #352521",
"-  c #342B23",
";  c #3B2C24",
":  c #3F2A24",
">  c #3B3629",
",  c #462C26",
"<  c #493426",
"1  c #4C3A2B",
"2  c #463629",
"3  c #533C2B",
"4  c #523029",
"5  c #493D33",
"6  c #663924",
"7  c #673727",
"8  c #71322D",
"9  c #663E32",
"0  c #612625",
"q  c #59402E",
"w  c #4D4638",
"e  c #554B3B",
"r  c #564736",
"t  c #58503C",
"y  c #6C4A35",
"u  c #6D4E39",
"i  c #644A37",
"p  c #774C37",
"a  c #6D523C",
"s  c #64593E",
"d  c #74533D",
"f  c #7B553C",
"g  c #64432E",
"h  c #3E547D",
"j  c #5B5241",
"k  c #5E5650",
"l  c #6D5743",
"z  c #635B46",
"x  c #6E5B45",
"c  c #665343",
"v  c #7B5540",
"b  c #735A43",
"n  c #7B5B43",
"m  c #735641",
"M  c #605557",
"N  c #6D634A",
"B  c #7C644B",
"V  c #75694E",
"C  c #77644B",
"Z  c #696459",
"A  c #766C53",
"S  c #7B6B51",
"D  c #71645A",
"F  c #7A7256",
"G  c #7C7459",
"H  c #40557C",
"J  c #485574",
"K  c #535363",
"L  c #786D62",
"P  c #7A7564",
"I  c #7A736C",
"U  c #7E7471",
"Y  c #843331",
"T  c #834C34",
"R  c #90473F",
"E  c #8C563A",
"W  c #995837",
"Q  c #814E45",
"!  c #835E45",
"~  c #856046",
"^  c #8B6449",
"/  c #88664C",
"(  c #91694D",
")  c #896C52",
"_  c #956D52",
"`  c #857A5D",
"'  c #897B5C",
"]  c #837657",
"[  c #9C7254",
"{  c #9F795C",
"}  c #AA6643",
"|  c #A56A49",
" . c #B9734C",
".. c #A37556",
"X. c #AA7B59",
"o. c #A67A59",
"O. c #BD7C54",
"+. c #B17F5D",
"@. c #B76D44",
"#. c #857463",
"$. c #887F75",
"%. c #A97F61",
"&. c #9A8B5D",
"*. c #AE805F",
"=. c #BA845F",
"-. c #8C8264",
";. c #8B8468",
":. c #958B6A",
">. c #968C69",
",. c #99906C",
"<. c #9D9575",
"1. c #AF8262",
"2. c #BA8661",
"3. c #BD8964",
"4. c #BC8B68",
"5. c #B48768",
"6. c #A98972",
"7. c #A49B75",
"8. c #A6946F",
"9. c #ABA37B",
"0. c #AAA076",
"q. c #B0A67B",
"w. c #B6A46E",
"e. c #C28C66",
"r. c #C68F68",
"t. c #CB936B",
"y. c #D1966E",
"u. c #D4986F",
"i. c #CD9772",
"p. c #CB9A78",
"a. c #D69A71",
"s. c #DB9E73",
"d. c #D49E7D",
"f. c #DCA27B",
"g. c #DDA177",
"h. c #CEBA7C",
"j. c #6A8ED2",
"k. c #748EC7",
"l. c #7A9EE6",
"z. c #729DEB",
"x. c #769BE2",
"c. c #77A1F0",
"v. c #7FA2E7",
"b. c #9D9087",
"n. c #94878E",
"m. c #A79B88",
"M. c #A79B93",
"N. c #BF9E95",
"B. c #B79C9B",
"V. c #BA9B86",
"C. c #AFA681",
"Z. c #B4AC84",
"A. c #BBB283",
"S. c #BFB68A",
"D. c #BEB690",
"F. c #9590A2",
"G. c #828BB0",
"H. c #9A9DBD",
"J. c #AE9EA8",
"K. c #A79EB1",
"L. c #B6AFB4",
"P. c #C89E8A",
"I. c #CAA189",
"U. c #D4A281",
"Y. c #DCAA87",
"T. c #D5A786",
"R. c #C4BB8B",
"E. c #CABB86",
"W. c #C5A695",
"Q. c #C5BD93",
"!. c #DEB99F",
"~. c #C2B9BB",
"^. c #DBBDAA",
"/. c #CDC28D",
"(. c #CCC295",
"). c #CFC59A",
"_. c #D5CB9C",
"`. c #D5C999",
"'. c #DDD39C",
"]. c #E6DA9D",
"[. c #EBD68F",
"{. c #FEE79A",
"}. c #FFE99E",
"|. c #DED3A3",
" X c #DED6AA",
".X c #D8C4B7",
"XX c #CEC8A6",
"oX c #E6DBA7",
"OX c #ECE1AB",
"+X c #FFECA4",
"@X c #F1E6AD",
"#X c #F5EAAC",
"$X c #FEEDAC",
"%X c #F3E5A3",
"&X c #FFF1AD",
"*X c #EFE4B2",
"=X c #EFE7BC",
"-X c #F5EAB2",
";X c #F9EEB4",
":X c #F5EAB7",
">X c #FFF3B4",
",X c #FFF4BB",
"<X c #899ED4",
"1X c #989EC2",
"2X c #98ABD7",
"3X c #9BA0C3",
"4X c #A3A9C5",
"5X c #B3BDDB",
"6X c #85A6E5",
"7X c #99B3E6",
"8X c #CCC6CC",
"9X c #F1EBC2",
"0X c #FFF5C2",
"qX c #FEF6C9",
"wX c #FFF9CE",
"eX c #FFF9D1",
/* pixels */
"&X>X0X>X>X:X'.`.Q.7.N % & & & & & * # r $.R.)._.%X;X,X,X,X0X",
",X,X,X$X@X].7.:.-.' / l K J h h h J M D ` #.:.<.).OX#X;X>X,X",
"eX,X#X]./.q.) s a n [ 5.n.G.k.j.j.k.F.n.$.D Z D m.D.'.%X$X>X",
",X-X_.9.] s o.3.r.t.i.a.p.B.H.x.z.z.6X<X4X4X.XL.I I ,./.oX,X",
",X_.<.V C ( e.u.s.s.g.s.s.P.K.<Xl.z.c.6X7X5X8X^.M.$.P ;.S.-X",
"*XZ.A q ^ t.s.s.s.s.s.s.s.P.B.H.<Xx.l.6X2X2X5X^..XM.D j :.'.",
"C.:.V d ..u.s.s.s.s.s.s.s.d.d.P.J.H.1X3X3XL.W.Y.`.V.#.x G <.",
"N z B ..e.u.s.s.s.s.s.s.s.s.s.d.P.N.W.B.W.P.U.s.Y.p.5._ x w ",
"@ 1 ! t.s.s.s.s.s.s.t.t.e.e.t.t.u.s.s.a.y.r.r.r.r.t.t.X.3   ",
"@ 3 ! t.s.s.s.s.s.t.{ n a u d ^ *.u.s.e.[ n a u p ( o...q   ",
"@ 1 ! y.s.s.s.s.s.i.6.#.5 2 g ^ =.u.a.i.6.G w ; i ( +...q   ",
"@ 1 ! t.s.s.s.s.s.d.W.B.w 1 d o.t.u.g.T.W.b.k : ! o.=.o.q . ",
"@ 2 d 2.i.a.s.s.s.f.Y.T.%.X.2.y.u.g.s.g.T.I.5...e.r.e...i @ ",
"@ $ < n X.i.a.s.s.g.U.f.i.t.u.s.g.g.s.g.g.f.a.t.a.e.[ n V F ",
"w > % 1 / 5.y.a.s.s.s.s.s.s.s.u.t.3.3.3.3.r.t.s.a.X.m s :./.",
"_.9.F r b { e.i.u.s.s.s.s.s.u.2.E 3 < < 1 i ..t.e._ m z 7.].",
">X'.C.;.A B { 1.4.e.t.y.a.s.a.r.[ f d a u d [ =.( ) ' <./.#X",
"&X$XOX(.,.A ) ) _ ..*.4.t.t.y.t.e.2.=.X.[ ( _ _ S -.Z.oX#X>X",
">X,XqX-XOX).G j t z C _ _ [ ..........( n t t N Z. X9X;X>X0X",
"&X,X0X,X,X#XA.,.G V x d m n n f f p f n V F ;.0.].;X0X,X,X,X",
"&X>X,X,X,X>X]./.0.` N i d d p y 6 6 g a S ,.S.|.#X&X>X,X,X>X",
"&X,X,X>X,X*XA.>.S a u ! +.=.O. .@.} ! f a x #.9.oX-X,X>X,X0X",
",X,X,X,X0X=XZ.-.s q < 3 | O. .} @.} p 9 g i F <.|.-X,X,X0XwX",
",X,X>X,XqX9XD.>.C q O o T W T p p v 8 8 g x ' q.oX>X>X,XqXeX",
"&X,X,X,X,X0X@X_.C.F > . 6 6 4 : , 9 Y Q _ 8.Q.oX;X>X,X,X,X0X",
",X,X,X&X>X,X,X@X'.7.e X 4 , + o = 4 0 Q 6.).oX>X,X0X>X>X>X,X",
"wX0X>X&X>X>X,X>X#X(.Z X : = O X = , + l m.OX,X,XwX0X>X&X&X>X",
",X,X,X>X,X,X>X,X:XXXP - ; ; % # = , = c 9.OX,X,X,X,X,X>X,X,X",
"&X+X&X>X>X$X$X&X;X].7.V > 2 e j 5 ; c >.E.{.&X>X,X,X>X&X$X$X",
"{.}.+X>X$X{.}.+X#X{.[.w.w w F >.k - &.h.[.{.+X#X,X>X>X}.{.{."
};
