/* XPM */
static char *_5fe3677126b49dbddcdf87c1f6c82baydpSeU5Suhnckk0q[] = {
/* columns rows colors chars-per-pixel */
"30 30 100 2 ",
"   c #FFE79A",
".  c #FFE99E",
"X  c #FFF2B0",
"o  c #FFF4BA",
"O  c #FFF2BA",
"+  c #FFE9A0",
"@  c #FFE99D",
"#  c #FFEFA7",
"$  c #FFF3B5",
"%  c #FFF4BE",
"&  c #FFF4B6",
"*  c #FFF3BC",
"=  c #FFF1AE",
"-  c #FFF1B8",
";  c #FFF7CB",
":  c #FFEAA4",
">  c #FFEEA5",
",  c #FFEFA9",
"<  c #FFF1AF",
"1  c #FFF3BA",
"2  c #FFEFA8",
"3  c #FFF0AE",
"4  c #FFF0B3",
"5  c #FFF0B0",
"6  c #FFF3B7",
"7  c #FFF4B8",
"8  c #FFF4BC",
"9  c #FFF3B9",
"0  c #FFF1B5",
"q  c #FFF0AB",
"w  c #FFEEA6",
"e  c #FFF2B2",
"r  c #FFF5BC",
"t  c #FFF1B6",
"y  c #FFF0AC",
"u  c #FFF3AF",
"i  c #FFF3B1",
"p  c #FFF5BD",
"a  c #FFF7C8",
"s  c #FFF3B4",
"d  c #FFF6C6",
"f  c #FFF5C2",
"g  c #FFF5BF",
"h  c #FFF6C4",
"j  c #FFF4B9",
"k  c #FFF4BD",
"l  c #FFF5BE",
"z  c #FFF2AF",
"x  c #FFF3B2",
"c  c #FFF3B3",
"v  c #FFF7C9",
"b  c #FFF4B7",
"n  c #FFF8D0",
"m  c #FFF4B5",
"M  c #FFF9D3",
"N  c #FFF1AC",
"B  c #FFF3B6",
"V  c #FFF4C0",
"C  c #FFF3B0",
"Z  c #FFF2AD",
"A  c #FFF4B4",
"S  c #FFF6C0",
"D  c #FFF2B3",
"F  c #FFF4BB",
"G  c #FFF7CC",
"H  c #FFF5BA",
"J  c #FFF7C5",
"K  c #FFF7C4",
"L  c #FFF3B8",
"P  c #FFF6C7",
"I  c #FFF6C2",
"U  c #FFF6C8",
"Y  c #FFF7C3",
"T  c #FFF4BF",
"R  c #FFF5BB",
"E  c #FFF8C8",
"W  c #FFF6C1",
"Q  c #FFF8CC",
"!  c #FFF6C3",
"~  c #FFF5C0",
"^  c #FFF6BE",
"/  c #FFF9CD",
"(  c #FFF7C2",
")  c #FFF4B3",
"_  c #FFF1AB",
"`  c #FFF7C7",
"'  c #FFF5B9",
"]  c #FFF8CD",
"[  c #FFF2B6",
"{  c #FFF2B4",
"}  c #FFF4C2",
"|  c #FFF2BC",
" . c #FFF0B2",
".. c #FFEEA8",
"X. c #FFF1B1",
"o. c #FFF0B5",
"O. c #FFEDAD",
"+. c #FFEEA7",
"@. c #FFECA2",
"#. c #FFF2AE",
/* pixels */
"    . X o O +         @ # $ % & o * = $ O +       - ; :     ",
"> , < 1 o $ 2 , 3 4 5 = 6 7 7 8 o 7 9 7 6 0 5 q w e r t 5 y ",
"u $ o o o 7 i $ o o o p a p i 7 o o o s s d f 7 i $ o o o o ",
"7 o 8 7 g h o o 8 7 j k ; l z & o 8 7 x c v d 8 7 o 8 7 g d ",
"% j b k v n f o b k $ z 8 o b k j m k o b k o b 8 j b k v M ",
"N B k b 8 V b o k b o 8 b o k b C Z A o k b o 8 z B k b 8 f ",
"a S & z x 7 8 B D o o 7 8 o 7 8 b c F d G g o H J S & z x 7 ",
"K g 7 i $ o o L 9 P f j B L o o o o o I U k o r Y g 7 i $ o ",
"7 o 8 7 o 8 7 o g G d o D 6 8 7 7 9 7 o 8 7 7 9 7 o 8 7 o 8 ",
"T o b k o b 8 j b k o b k o b k $ z 8 o b k $ z 8 o b k o m ",
"m o k b o 8 z B k b o k b o k b o 8 b o k b o 8 b o k b o T ",
"8 o R E W 7 9 j & z l Q g o 7 8 d G g o & z x 7 8 o R E W 7 ",
"o o 8 ! g o o o 7 i p U k o j B ~ U k o 7 i $ o o o r Y g o ",
"7 o 8 7 7 9 7 o 8 7 o 8 7 o o D 6 8 7 o k ^ p 8 7 o 8 7 7 9 ",
"T j m k $ z 8 o b k j m 8 j b k o b k o H / ( m k j m k $ N ",
"m C Z ) o 8 b o k b C _ N B k b o k b o % j i Z A C Z A o % ",
"8 b m ` W 7 8 o 7 8 b x L j R E l D o o 7 8 b c F b m ` W 7 ",
"o o 8 ! H i 7 o o o o o o o r ! p B j o o o o o o o r ! H z ",
"i b 8 7 x z & o k ^ p 8 7 o 8 7 o 8 7 g h o o o c b 8 7 x Z ",
"_ i ' % o b k o H ] Y b 8 j b k o b 8 a n f o ) Z i ' % o m ",
") ( / H o k b o % j F 8 z B k b o 8 z 6 V b o k m ( ] H o T ",
"Z m l k o & z x 7 8 o 7 9 j 7 8 o 7 9 j 7 8 o & z m l k o 7 ",
"u $ o o o 7 i $ o o o p a p i 7 o o o s s d f 7 i $ o o o o ",
"7 o 8 7 g h o o 8 7 7 k ; l z & o 8 7 x c v d 8 7 o 8 7 g d ",
"% j b k v n f o b k $ z 8 o b k j m k o b k o b 8 j b k v M ",
"N $ k b 8 V b o k b o 8 b o k b C Z ) o k b o 8 z B k b 8 f ",
"a S & z x 7 8 B D o o 7 8 o 7 8 b c F d Q g o H J S & z x 7 ",
"K g 7 i $ o o L 9 P I j B 6 o o o o o f U k o r ! g 7 i $ o ",
"y 5 0 6 [ 4 3 { % } |  ...X.8 7 [ 4 3 5 4 3 D 9 7 o 1 < 5 o.",
"    + O O.    +.X .       +.& % O.          @.#.8 o X .     "
};
