/* XPM */
static char *d48a7d959e8d473ab3067351df22bf5deb0XzfNelU9zWwcu[] = {
/* columns rows colors chars-per-pixel */
"30 30 163 2 ",
"   c #F77B26",
".  c #F8842B",
"X  c #FB942D",
"o  c #FC9D2E",
"O  c #F88632",
"+  c #F88D3D",
"@  c #F99134",
"#  c #FB9C36",
"$  c #F99A3C",
"%  c #FDA533",
"&  c #FEAC34",
"*  c #FBA13E",
"=  c #FDAC3B",
"-  c #FDB23B",
";  c #F68D4D",
":  c #F99646",
">  c #FA9945",
",  c #F4905E",
"<  c #FBA344",
"1  c #FBA34D",
"2  c #FBAF4E",
"3  c #FDB343",
"4  c #FDBC44",
"5  c #FAB44B",
"6  c #FEBA4B",
"7  c #FAA457",
"8  c #FBA954",
"9  c #FAA458",
"0  c #FBAB5C",
"q  c #FCBC56",
"w  c #FCB35F",
"e  c #FDBE59",
"r  c #FBAC63",
"t  c #F5A26F",
"y  c #FBB363",
"u  c #FBB867",
"i  c #FBB46C",
"p  c #FBB868",
"a  c #FAB270",
"s  c #FCBC73",
"d  c #F9B079",
"f  c #FDC145",
"g  c #FEC54C",
"h  c #FECC4F",
"j  c #FEC453",
"k  c #FECA54",
"l  c #FEC659",
"z  c #FDD255",
"x  c #FED25B",
"c  c #FEDD5B",
"v  c #FEE25E",
"b  c #FDC562",
"n  c #FECF65",
"m  c #FDC26D",
"M  c #FCCC6B",
"N  c #FED563",
"B  c #FEDC65",
"V  c #FED46A",
"C  c #FEDB6C",
"Z  c #FDC675",
"A  c #FECC73",
"S  c #FCC47C",
"D  c #FED475",
"F  c #FEDC74",
"G  c #FFDB7B",
"H  c #FEE661",
"J  c #FEE46D",
"K  c #FEE96F",
"L  c #FEE273",
"P  c #FEE972",
"I  c #FEE57B",
"U  c #FEEA7B",
"Y  c #F7B283",
"T  c #F8BE90",
"R  c #FDCC83",
"E  c #FDCC88",
"W  c #FFD581",
"Q  c #FFDA82",
"!  c #FDD48C",
"~  c #FEDC8C",
"^  c #FACD99",
"/  c #FDD493",
"(  c #FEDB94",
")  c #FEDE9E",
"_  c #FEE483",
"`  c #FEEA82",
"'  c #FFE38C",
"]  c #FEEB8C",
"[  c #FEE394",
"{  c #FFEE91",
"}  c #FFE59B",
"|  c #FEEB9C",
" . c #FEF09D",
".. c #FDDBA4",
"X. c #FCDFAF",
"o. c #FEE5A2",
"O. c #FFEBA3",
"+. c #FFEEAC",
"@. c #FFEFAF",
"#. c #FFEDAB",
"$. c #FFF1A2",
"%. c #FFF1A5",
"&. c #FFF1AA",
"*. c #FFF2AC",
"=. c #FFF2AD",
"-. c #FFF1AE",
";. c #FFF2AE",
":. c #FFF3AF",
">. c #FFF2AD",
",. c #FDEAB3",
"<. c #FFECB2",
"1. c #FFEEBA",
"2. c #FFF2B0",
"3. c #FFF3B1",
"4. c #FFF3B2",
"5. c #FFF3B3",
"6. c #FFF4B2",
"7. c #FFF1B5",
"8. c #FFF3B4",
"9. c #FFF2B5",
"0. c #FFF3B5",
"q. c #FFF0B7",
"w. c #FFF3B6",
"e. c #FFF2B7",
"r. c #FFF3B7",
"t. c #FFF4B4",
"y. c #FFF4B6",
"u. c #FFF4B7",
"i. c #FFF3B4",
"p. c #FFF2BA",
"a. c #FFF4B8",
"s. c #FFF4B9",
"d. c #FFF5B9",
"f. c #FFF4BA",
"g. c #FFF5BA",
"h. c #FFF4BB",
"j. c #FFF1BD",
"k. c #FFF3BC",
"l. c #FFF4BC",
"z. c #FFF5BC",
"x. c #FFF4BD",
"c. c #FFF5BD",
"v. c #FFF4BE",
"b. c #FFF5BF",
"n. c #FFF6BF",
"m. c #FFF4BB",
"M. c #FFF4C0",
"N. c #FFF6C0",
"B. c #FFF6C1",
"V. c #FFF6C3",
"C. c #FFF7C3",
"Z. c #FFF5C3",
"A. c #FFF6C9",
"S. c #FFF8CB",
"D. c #FFF9CF",
"F. c #FFF8CC",
"G. c #FFF3D1",
"H. c #FFF9D4",
"J. c #FFF9DD",
"K. c #FFFAE3",
"L. c #FFFCEC",
"P. c #FFFEF4",
"I. c #FFFFFE",
/* pixels */
"&.0.c.0.s.c.t.,.X.....^ s i s E } =.4.s.c.0.s.x.=.0.x.p.s.N.",
"N.c.s.4.0.s.c...T Y d a i s R / } O.@.1.x.0.p.s.c.c.t.4.0.s.",
"H.C.t.=.6.s.s.^ t , ; : 0 m W ! ~ [ ( o.#.#.,.s.F.N.t.=.4.t.",
"t.p.c.t.s.c.t./ p 8 $ % = 3 3 6 6 6 6 b Z G o.p.s.x.c.t.p.c.",
"s.s.s.s.s.s.p./ y < # X # % & & - - - e M ! o.w.s.c.s.c.p.s.",
"c.c.s.c.s.s.p./ 0 > @ X o % & & & = - e Z ! o.:.s.p.0.c.c.t.",
"t.s.c.s.s.c.4./ s 8 < % & & & % % % % * 1 r / j.s.s.c.s.s.c.",
"c.p.c.N.N.s.0.} ! p q 4 - - & & % % % < 1 y / p.s.s.c.C.N.p.",
"Z.a.a.F.Z.a.k.O.~ D n k g f - 4 = = = 2 y Z ( p.c.s.s.F.C.0.",
"y.l.l.l.l.k.a.| D N x c v c c c z h j b S E o.j.p.c.c.s.x.c.",
"a.a.a.a.r.r.s.| L B B v v H v v v c k e u S ) p.s.s.s.s.0.0.",
"l.a.y.a.r.2.s.| ` J H H H H H H H v z 5 1 r E #.p.s.4.x.p.=.",
"a.2.;.y.s.s.s.| G B c v H v H H H v z 5 $ : 9 S #.4.=.0.p.c.",
"a.a.6.Z.N.s.s.} F N c H P U ` ` U J x 3 @ O + 7 o.0.4.N.N.p.",
"Z.a.a.S.N.t.s.| F N H L { $.6.6.$.] V 5 @     : ..s.s.F.N.4.",
"y.l.l.a.0.=.6.O.` U { %.C.J.L.K.K.C.o.A 5 $ . + o.s.c.s.4.=.",
";.y.l.a.y.*.%. .|  .t.H.K.P.I.I.P.L.A.( M q 1 9 } 0.p.p.0.=.",
";.2.a.l.l.6.]  .=.N.J.P.I.I.I.I.I.P.J.4._ V b Z O.t.s.x.c.t.",
"6.Z.S.a.s.:.U { N.J.L.I.I.I.I.I.I.P.K.1.` C M A O.C.S.s.s.c.",
";.a.Z.l.s.&.K { C.K.P.I.I.I.I.I.I.I.L.C.| _ V V O.s.N.x.s.c.",
"=.4.p.c.s.&.K { C.K.P.I.I.I.I.I.I.I.P.J.M.O.F N | 4.t.c.s.0.",
"6.t.c.s.s.:.K { C.K.P.I.I.I.I.I.I.I.I.L.J.l.] K %.s.c.s.c.M.",
"s.s.s.s.N.s.P { C.K.P.I.I.I.I.I.I.I.I.P.K.V.] K =.p.p.x.N.F.",
"x.s.t.c.A.c.P ] N.J.P.I.I.I.I.I.I.I.I.P.J.l.] J =.s.t.x.C.H.",
"=.0.x.p.c.<.N W ,.G.K.P.P.I.I.I.I.P.P.K.F.,.A k | 0.x.0.c.N.",
"N.c.s.4.4.<.Q ~ | @.0.x.H.L.P.P.L.H.l.@.O.~ b j #.x.p.4.0.s.",
"H.N.6.=.4.4.O.[ _ ` ` ] =.C.J.J.A.&.] I F V l b 1.N.6.=.4.t.",
"t.x.c.t.t.s.4.} G D C C I ` ] ' _ I J C V M Q } 0.p.c.t.s.s.",
"#.#.@.0.4.@.#.} ( Q G F C N x x N C G G G G [ @.p.s.0.#.#.@.",
"[ | O.p.#.} } | O.' ' _ V j 4 4 j V _ ' ~ ' | 2.c.s.4.| } } "
};
