/* XPM */
static char *a5698e0c7d5643d9fcab3b6b57d79fc1q0wbdQlncpe4zdAs[] = {
/* columns rows colors chars-per-pixel */
"30 30 164 2 ",
"   c #5D905E",
".  c #58A74F",
"X  c #5AB14E",
"o  c #5DBB4D",
"O  c #60BB4F",
"+  c #65AD59",
"@  c #6BAE5A",
"#  c #62B754",
"$  c #64BE51",
"%  c #6CB95A",
"&  c #5E8762",
"*  c #6C8F6E",
"=  c #6DA461",
"-  c #76A967",
";  c #79BB63",
":  c #5FC04D",
">  c #62C64D",
",  c #66C552",
"<  c #68C751",
"1  c #67C952",
"2  c #74C75C",
"3  c #73CB5A",
"4  c #7ACD5E",
"5  c #7CC163",
"6  c #73CC60",
"7  c #7BCF65",
"8  c #87AC70",
"9  c #8EA97F",
"0  c #95AD7E",
"q  c #8BB475",
"w  c #94B875",
"e  c #8BC16C",
"r  c #82D167",
"t  c #84D26A",
"y  c #8CD36B",
"u  c #90D46F",
"i  c #9CC87A",
"p  c #86D372",
"a  c #8ED67A",
"s  c #94D674",
"d  c #9BD773",
"f  c #94D77B",
"g  c #9ED97D",
"h  c #A1D87A",
"j  c #AADC7F",
"k  c #B1D97C",
"l  c #9AAD85",
"z  c #A9B990",
"x  c #95D882",
"c  c #9BD982",
"v  c #A2C782",
"b  c #B2C688",
"n  c #B3CB8B",
"m  c #BBCD89",
"M  c #A9D083",
"N  c #ADDB82",
"B  c #A0DC8E",
"V  c #AEDF8D",
"C  c #B2DD85",
"Z  c #B2DF8D",
"A  c #BEDF8B",
"S  c #BECB97",
"D  c #A0DD92",
"F  c #A6DF99",
"G  c #B3DF93",
"H  c #BDE18C",
"J  c #ABE19B",
"K  c #B1E19B",
"L  c #BBE298",
"P  c #AFE3A3",
"I  c #B2E3A6",
"U  c #B8E4A3",
"Y  c #B6E5AA",
"T  c #B8E4A8",
"R  c #BAE6B0",
"E  c #C3CB9B",
"W  c #C9D595",
"Q  c #C4D994",
"!  c #D0DA9C",
"~  c #C1E28E",
"^  c #D9E28D",
"/  c #C5E493",
"(  c #CEE69B",
")  c #D3E79B",
"_  c #D4E89B",
"`  c #E2EB9F",
"'  c #FFE79A",
"]  c #FFE99E",
"[  c #D2D5A1",
"{  c #D5DBA3",
"}  c #D9DEA3",
"|  c #C4E6A0",
" . c #C5E7AE",
".. c #C5E8AE",
"X. c #CAE8A8",
"o. c #DFE0A6",
"O. c #DAEAA3",
"+. c #C2E8B4",
"@. c #C4EABA",
"#. c #C8EBBE",
"$. c #D4EBB1",
"%. c #D8ECBB",
"&. c #EDE7A0",
"*. c #E3ECA5",
"=. c #EAECA3",
"-. c #E3E3AB",
";. c #EAE6AE",
":. c #E6ECAB",
">. c #ECEEAB",
",. c #FCEBA4",
"<. c #F3EFA9",
"1. c #FFEEAC",
"2. c #EFF0AE",
"3. c #F7F0A9",
"4. c #FEF2AD",
"5. c #ECE7B1",
"6. c #EEEAB0",
"7. c #F5EEB3",
"8. c #F8EDB2",
"9. c #ECF0B5",
"0. c #E7F1BB",
"q. c #ECF1BC",
"w. c #F5F1B3",
"e. c #FFF3B5",
"r. c #F5F3BC",
"t. c #FFF4BB",
"y. c #CBECC3",
"u. c #D2EFCA",
"i. c #D7F0CD",
"p. c #D7F1D1",
"a. c #DAF2D4",
"s. c #DFF4DA",
"d. c #F3F3C4",
"f. c #FFF6C2",
"g. c #FEF6C9",
"h. c #FFF8CC",
"j. c #E3F3D2",
"k. c #E2F4DD",
"l. c #E9F6DA",
"z. c #F1F6D2",
"x. c #FFF9D2",
"c. c #F4F7DB",
"v. c #FEFAD8",
"b. c #E5F6E1",
"n. c #E7F6E2",
"m. c #E9F7E6",
"M. c #E9F8E6",
"N. c #EEF8E5",
"B. c #ECF8E9",
"V. c #EFF9EC",
"C. c #EDF8EA",
"Z. c #F2FAEE",
"A. c #F9FCED",
"S. c #F2FBF1",
"D. c #F5FBF4",
"F. c #FDFDF3",
"G. c #FAFDF9",
"H. c #FBFEFA",
"J. c #F9FDF8",
"K. c #FCFEFB",
"L. c white",
"P. c #FEFFFE",
"I. c #FDFEFC",
"U. c #FEFFFE",
/* pixels */
"4.e.f.e.t.t.e.t.t.t.t.t.e.7.[ q w m ;.;.-.;.7.t.8.e.f.e.t.f.",
"t.t.e.e.e.t.t.e.e.t.t.t.r.<.{ n n W -.E z E -.t.f.t.e.e.e.e.",
"x.f.e.4.e.e.t.e.e.t.t.w.;.{ W Q A Q S l * l [ t.h.f.e.4.e.e.",
"t.t.t.e.t.t.t.e.t.h.d.*.b 8 = ; 5 ; =   & 0 [ t.t.t.t.e.t.f.",
"t.t.t.t.t.e.t.t.t.d.O.C q @ . $ $ # + - 0 S -.e.t.t.t.t.t.t.",
"t.t.t.t.t.e.t.t.e.6.~ y 3 > o > : o % i ! ;.8.e.t.t.t.t.t.e.",
"e.t.t.t.t.t.e.e.r.2.H y 3 , > > o X + v -.8.t.t.e.t.t.e.t.t.",
"t.t.t.f.t.t.e.t.e.<._ Z y 3 > > o O % M >.3.e.t.t.t.t.f.t.t.",
"t.t.t.h.f.t.t.t.e.3.*.( g 7 1 1 1 , 6 N >.1.4.e.t.t.t.h.f.t.",
"e.t.t.t.t.t.e.t.t.=.~ s 7 7 7 7 6 1 6 C :.e.t.t.e.t.t.t.t.t.",
"t.t.t.t.e.t.t.t.w.*.C t a D I I D x t N *.r.t.t.t.t.t.t.t.e.",
"t.t.e.t.e.4.t.w.*.( h r D y.M.M.u.I c H X.9.r.e.t.t.e.t.e.4.",
"e.e.4.e.t.t.e.*.Z s r p P a.H.H.S.b.u.K g H *.4.e.e.4.e.t.t.",
"t.e.e.f.t.t.t._ j r a P u.M.P.P.P.D.k.Y f N _ 3.e.e.e.t.t.e.",
"t.t.t.h.f.e.t.O.j y J a.V.H.P.P.P.I.V.@.B V / O.t.t.t.h.f.e.",
"t.t.t.e.e.4.e.O.G x Y m.H.P.P.P.P.P.H.B.p.Y g d >.t.t.t.e.4.",
"4.e.t.t.e.e.e.9.$.+.p.D.I.U.P.P.P.P.P.K.C.@.x y ` e.t.t.e.4.",
"4.e.t.t.t.t.t.d.z.N.D.I.U.U.P.P.P.P.P.P.D.y.F c =.e.t.t.t.e.",
"e.t.h.t.e.t.>.q.c.F.P.P.U.P.P.P.P.P.P.P.U.V.k.j.r.f.h.t.t.t.",
"4.t.f.t.t.w.~ X.j.J.P.P.P.P.P.P.P.P.P.P.P.G.D.A.t.t.f.t.t.t.",
"4.e.t.t.t.2.V U u.J.P.P.P.P.P.P.P.P.P.P.P.P.P.F.t.e.e.t.t.t.",
"e.t.t.e.t.f.j.b.Z.P.P.P.P.P.P.P.P.P.P.P.P.P.P.F.f.t.t.e.t.t.",
"e.t.t.t.f.x.D.H.H.P.P.P.P.P.P.P.P.P.P.P.P.P.P.F.f.t.t.t.f.g.",
"t.t.t.t.f.v.F.H.P.P.P.P.P.P.P.P.P.P.P.P.P.U.U.A.f.t.e.t.g.x.",
"4.t.t.t.t.d.l.C.D.P.P.P.P.P.P.P.P.P.P.P.I.J.N.l.e.e.t.t.t.f.",
"t.t.e.e.e.r. .y.s.Z.H.P.P.P.P.P.P.P.P.P.J.k.y. .r.t.e.e.e.t.",
"h.f.e.4.e.3.V G +.a.B.D.H.P.P.P.U.U.U.K.D.u.K G d.f.e.4.e.e.",
"t.t.t.e.e.r.:.( / F @.k.Z.H.P.P.G.Z.V.Z.A.z.q.:.w.t.t.e.e.t.",
"4.1.1.t.e.1.,.` ) A G T u.C.P.P.C.u.+.%.d.8.8.e.t.t.e.1.1.1.",
"' ' ,.e.1.' ' ,.>.^ k f Y k.P.P.s.T c A &.,.1.8.t.t.e.] ' ' "
};
