/* XPM */
static char *_92451f5f668458aa7ee4f4f33f0d9fbsTRLuvc69XaCg33l[] = {
/* columns rows colors chars-per-pixel */
"30 30 183 2 ",
"   c #6F6973",
".  c #726C75",
"X  c #7E7474",
"o  c #777178",
"O  c #7D767A",
"+  c #837969",
"@  c #847C7C",
"#  c #8F8874",
"$  c #978E77",
"%  c #9A917F",
"&  c #837D80",
"*  c #8E8581",
"=  c #8D8886",
"-  c #8E888A",
";  c #918783",
":  c #928A84",
">  c #988F82",
",  c #918B8C",
"<  c #998F8C",
"1  c #939387",
"2  c #9D9486",
"3  c #9A938C",
"4  c #9A9A8E",
"5  c #9A9490",
"6  c #A29988",
"7  c #A89E8C",
"8  c #A29C94",
"9  c #ADA385",
"0  c #A5A28B",
"q  c #A8A188",
"w  c #ABA88D",
"e  c #B6AD8F",
"r  c #A6A094",
"t  c #AAA396",
"y  c #ABA69D",
"u  c #A7A89B",
"i  c #ACA89D",
"p  c #B3AB93",
"a  c #B3AD9C",
"s  c #BBB594",
"d  c #B3B09E",
"f  c #BBB49A",
"g  c #AEA9A3",
"h  c #B0ACA6",
"j  c #BFAFA8",
"k  c #B6B2A6",
"l  c #B7B1A8",
"z  c #BAB6A9",
"x  c #BBB9AC",
"c  c #BFBBB0",
"v  c #C1B99B",
"b  c #C3BDA6",
"n  c #C3B4AD",
"m  c #C0BBAF",
"M  c #CBBEB5",
"N  c #CFC597",
"B  c #C5C09D",
"V  c #CCC39C",
"C  c #D3CB9B",
"Z  c #FFE79A",
"A  c #FFE99E",
"S  c #C7C2A4",
"D  c #CDC7A4",
"F  c #C9C4AE",
"G  c #D0C7A2",
"H  c #D5CDA4",
"J  c #D8CFA6",
"K  c #D4CDAD",
"L  c #D9CEA8",
"P  c #DCD2A3",
"I  c #DCD5AD",
"U  c #C4C2B5",
"Y  c #C8C3B1",
"T  c #CDC8B5",
"R  c #C5C1BA",
"E  c #CCC3B9",
"W  c #CCCABD",
"Q  c #D3CCB4",
"!  c #D1C5BC",
"~  c #D5CCBC",
"^  c #D9D4B7",
"/  c #DFD8B6",
"(  c #DAD5BB",
")  c #DFD8B8",
"_  c #E1D7A6",
"`  c #E6DAA0",
"'  c #E5DCAC",
"]  c #EADEAC",
"[  c #E2DAB4",
"{  c #E1D7BC",
"}  c #E2DBBB",
"|  c #E9DFBD",
" . c #EDE1A8",
".. c #FFECA5",
"X. c #F0E4A8",
"o. c #F3E9AF",
"O. c #FFEDAB",
"+. c #FFF2AD",
"@. c #E7E0B4",
"#. c #EDE3B3",
"$. c #ECE4BA",
"%. c #F1E7B5",
"&. c #F5EBB5",
"*. c #FAEEB4",
"=. c #F5ECBC",
"-. c #F9EFBB",
";. c #FFF3B5",
":. c #FFF4BB",
">. c #CECCC1",
",. c #D2CDC1",
"<. c #D8CFC5",
"1. c #D6D3C6",
"2. c #DAD2C5",
"3. c #DFDAC4",
"4. c #D6D6C9",
"5. c #D9D3C8",
"6. c #DDDACC",
"7. c #E3DBC2",
"8. c #E1DCCB",
"9. c #E3DDD1",
"0. c #E7E1C7",
"q. c #ECE4C4",
"w. c #EFE8C0",
"e. c #E6E2CF",
"r. c #EAE5CB",
"t. c #EEE8CF",
"y. c #F4ECC3",
"u. c #F3ECCC",
"i. c #F7F0C3",
"p. c #FDF4C2",
"a. c #FDF6CA",
"s. c #FFF8CD",
"d. c #E5E2D3",
"f. c #E9E5D7",
"g. c #E9E5D6",
"h. c #E9E5D3",
"j. c #ECE8D6",
"k. c #E7E7D9",
"l. c #E9E7DA",
"z. c #EBE6DA",
"x. c #EDEADB",
"c. c #EEEADD",
"v. c #EFEDDF",
"b. c #EDECDE",
"n. c #EDEBDB",
"m. c #F2EDD1",
"M. c #F1EEDE",
"N. c #F2EEDD",
"B. c #F7F2D5",
"V. c #F6F1D4",
"C. c #F9F4D3",
"Z. c #FFF9D1",
"A. c #F3F0DB",
"S. c #F5F2DE",
"D. c #F7F5DC",
"F. c #FAF6DB",
"G. c #F2EFE1",
"H. c #F1EFE1",
"J. c #F1EFE0",
"K. c #F3F1E3",
"L. c #F1F0E2",
"P. c #F4F2E3",
"I. c #F7F4E2",
"U. c #F5F3E5",
"Y. c #F6F2E4",
"T. c #F7F4E5",
"R. c #F7F5E6",
"E. c #F5F3E3",
"W. c #F9F6E4",
"Q. c #FAF8E7",
"!. c #F9F7E8",
"~. c #F9F7E8",
"^. c #FAF8E9",
"/. c #FAF9E9",
"(. c #FBF9EA",
"). c #FAF9EA",
"_. c #FCF9EB",
"`. c #FCFAEB",
"'. c #FCFBEC",
"]. c #FDFBEC",
"[. c #FFFDEE",
"{. c #FEFCED",
"}. c #FDFBEC",
/* pixels */
"+.;.p.;.:.:.;.:.:.;.:.:.;.:.:.:.+.+.+.:.:.;.:.:.+.;.:.:.:.:.",
":.:.;.;.;.:.:.:.;.:.:.:.:.:.:.:.;.;.:.p.a.:.:.:.p.:.;.;.;.:.",
"Z.p.;.+.;.;.:.;.;.p.:.;.:.:.;.:.-.-.p.a.s.:.:.:.s.p.;.+.;.;.",
":.:.:.;.:.:.;.:.:.s.s.:.:.i.u.0.7.{ w.p.p.:.:.:.:.:.:.;.;.:.",
":.:.:.:.:.:.:.:.:.a.p.-.i.B.S.h.2.~ 7.7.y.=.*.*.:.:.:.:.&.&.",
":.:.:.:.:.;.:.:.:.p.=.y.N.!.!.k.5.! <.8.7.| &.*.:.:.:.:.#.@.",
";.:.:.:.:.:.+.;.-.i.w.r.W.'.!.6.6.9.9.9.8.Q { y.:.:.:.:.@.D ",
":.:.:.p.:.:.*.=.u.j.h.g.).'.L.>.6.G.Y.G.f.~ <.7.u.i.p.p.I s ",
":.:.:.a.p.:.$.r.g.S.v.c._.).k.x 4.'.'.R.c.,.E ! h.u.i.a.K w ",
";.:.:.:.:.i.m.N.R.R.E.E._.E.6.u >.'.K.d.<.M n n ~ 6.r.@.B 0 ",
":.:.:.:.-.u.N.R.).).).).'.b.>.4 c !.Y.f.<.M n n E 6.e.S s s ",
":.:.;.:.p.m.E.).[.].].].).l.W 1 x v.(.H.9.! n j M 8.g.d s C ",
";.;.+.;.a.D.Q.'.[.[.[.'.).b.4.u U b.'.'.Y.9.! n 5.c.G.Q I #.",
":.;.;.p.C.F.W.'.[.[.[.[.).L.d.1.d.!.'.].].Y.9.<.z.!.W.| @.;.",
":.:.:.s.F.W.R.!.[.[.'.[.!.L.b.K.!.).].[.[.[.Y.N._._.S.r.=.;.",
":.:.:.i.C.E.N.R.'.).'.[.!.n.9.6.f.H.Y.!.].[.]._.].N.0.$.o.+.",
"+.;.:.y.B.U.b.U.).R.W.].).c.d.6.~ x m W 6.k.b.l.6.( } %.;.+.",
"+.;.:.i.V.U.b.U.W.N.R.[.].L.g.d.x > ; 5 g M >.W k b I =.;.;.",
";.:.C.$.m.E.S.R.).n.E.[.[.!.n.1.l 3 * @ & - - - = h ) *.:.p.",
"+.:.y.^ 3.n.b.R.Q.n.D.[.[.S.6.l 8 3 ; O   . . o @ a @.=.:.:.",
"O.&./ x W 6.n.E.Q.n.L.].).f.U 2 * ; : @ .   . O 1 v  .;.:.;.",
"=.[ x 4 h 1.k.U.Q.g.E._.W.2.y @ X @ * 8 g y y f H @.-.:.:.p.",
"/ b r = u 1.e.b.L.n.N.R.E.~ t ; > 7 h Y 1.T Q ' &.;.:.:.p.s.",
"K f 2 2 i U >.6.f.e.f.n.n.~ p 6 p G ( r.n.3.#.:.:.:.;.:.s.s.",
" .' J V f 8 8 i x x ,.d.f.~ f 1 9 V } e.e.F / ;.*.:.:.:.:.p.",
":.=.%. .P V f s f a i y t t p e V _ } ( Y f H ;.:.:.;.;.;.:.",
"s.p.;.+.;.*. .P N v q $ + $ e P #.&.#.K v s P &.a.p.;.+.+.;.",
":.:.:.;.:.:.;.*.=.y.$.' `  .#.*.;.:.;.*.%.&.&.:.:.:.:.;.:.:.",
"..+.O.:.;.O.O.;.:.;.*.O...O.:.:.*.O.O.O.O.O.O.;.:.:.;.+.+.O.",
"Z Z A :.O.Z Z ..+.A Z Z Z O.;.:.O.Z Z Z Z Z ..+.:.:.+.A Z Z "
};
