/* XPM */
static char *_36d632c045d4c1abcd775a813b3b881DvcJ75RFzFFlJK6x[] = {
/* columns rows colors chars-per-pixel */
"30 30 229 2 ",
"   c #BC4D1E",
".  c #AE4E28",
"X  c #BD5C31",
"o  c #BD5A2A",
"O  c #BE642B",
"+  c #C8581C",
"@  c #D4541A",
"#  c #D35B1B",
"$  c #DB5B1A",
"%  c #D95918",
"&  c #F95C0F",
"*  c #E64A1E",
"=  c #EB5B16",
"-  c #E35B1C",
";  c #E65519",
":  c #F55913",
">  c #CC661F",
",  c #D36516",
"<  c #D4651B",
"1  c #DD6419",
"2  c #DB6B1C",
"3  c #DA6816",
"4  c #DC7619",
"5  c #DA791D",
"6  c #F76F0F",
"7  c #EF750C",
"8  c #F9780D",
"9  c #E36613",
"0  c #EB6A15",
"q  c #E4641D",
"w  c #E26A1C",
"e  c #EB6C1B",
"r  c #EB6316",
"t  c #F36C12",
"y  c #F56710",
"u  c #E87514",
"i  c #EF7C12",
"p  c #E4751C",
"a  c #EC7C1A",
"s  c #E87719",
"d  c #F37B11",
"f  c #F97714",
"g  c #CC5221",
"h  c #C75929",
"j  c #D35C23",
"k  c #D95A27",
"l  c #CF4B37",
"z  c #D04B34",
"x  c #CD5D36",
"c  c #DB523A",
"v  c #D85A38",
"b  c #E34121",
"n  c #E14C27",
"m  c #E85225",
"M  c #E05434",
"N  c #C1612A",
"B  c #C96724",
"V  c #D46523",
"C  c #DB6625",
"Z  c #DD6C23",
"A  c #DC6E2C",
"S  c #D27024",
"D  c #DC7223",
"F  c #D7752A",
"G  c #C76837",
"H  c #D4663C",
"J  c #D76A39",
"K  c #CF7934",
"L  c #D97C3B",
"P  c #D47636",
"I  c #E76628",
"U  c #E67927",
"Y  c #E06633",
"T  c #F47827",
"R  c #BC7551",
"E  c #C16A42",
"W  c #CB6B44",
"Q  c #C76543",
"!  c #D6674A",
"~  c #CA7848",
"^  c #D57647",
"/  c #CF6C52",
"(  c #CD7A56",
")  c #C37D52",
"_  c #D87C57",
"`  c #D86D53",
"'  c #E77F4A",
"]  c #F5820C",
"[  c #FC8B0E",
"{  c #FB850B",
"}  c #FE930C",
"|  c #FD9B0C",
" . c #FB9706",
".. c #EA8219",
"X. c #E8871A",
"o. c #F58413",
"O. c #F48D13",
"+. c #F98B12",
"@. c #F58619",
"#. c #ED9B1C",
"$. c #E6961C",
"%. c #F69213",
"&. c #FC9C13",
"*. c #F79719",
"=. c #FEA30C",
"-. c #FFAC0C",
";. c #FEA507",
":. c #FFB40D",
">. c #FDA314",
",. c #FDAA13",
"<. c #F1A41D",
"1. c #FAAD1B",
"2. c #FAA81B",
"3. c #FEB413",
"4. c #FEBC15",
"5. c #FCB31B",
"6. c #FEBD1C",
"7. c #D8873D",
"8. c #E58A28",
"9. c #F48C28",
"0. c #EA9622",
"q. c #F49725",
"w. c #E58C31",
"e. c #E3893E",
"r. c #F6AA20",
"t. c #FFC215",
"y. c #FEC41B",
"u. c #FFCB1B",
"i. c #FFD116",
"p. c #FFD41D",
"a. c #FFDB1E",
"s. c #FECD21",
"d. c #FBC623",
"f. c #FFD522",
"g. c #FFDC24",
"h. c #FEDD2A",
"j. c #FED628",
"k. c #FFE224",
"l. c #FFE52B",
"z. c #FFEA2E",
"x. c #FFED31",
"c. c #FFF235",
"v. c #D7864B",
"b. c #CB8350",
"n. c #CE8956",
"m. c #D48759",
"M. c #D9855A",
"N. c #D8935F",
"B. c #DD9642",
"V. c #E39144",
"C. c #E98D57",
"Z. c #E3915E",
"A. c #E6965A",
"S. c #E38E4B",
"D. c #E8AA55",
"F. c #D28C64",
"G. c #DA8A63",
"H. c #D6956A",
"J. c #DB9269",
"K. c #D79466",
"L. c #DA9E78",
"P. c #E39969",
"I. c #E39B73",
"U. c #DCA56C",
"Y. c #DCA571",
"T. c #D8A776",
"R. c #DEB376",
"E. c #E5A56A",
"W. c #E4A663",
"Q. c #E9B36F",
"!. c #F5B767",
"~. c #E1A77B",
"^. c #E3AB7B",
"/. c #E8AA78",
"(. c #EAB475",
"). c #E4B37B",
"_. c #E6BB7D",
"`. c #EBB677",
"'. c #F8BF78",
"]. c #EEC070",
"[. c #FFCD77",
"{. c #FCCB7B",
"}. c #F8C479",
"|. c #FAD27A",
" X c #D9A281",
".X c #E5B383",
"XX c #EBBB8B",
"oX c #E8B887",
"OX c #F4BE88",
"+X c #E3BD90",
"@X c #ECC282",
"#X c #EBC189",
"$X c #EBC88A",
"%X c #F7C88B",
"&X c #FBD785",
"*X c #EFC494",
"=X c #EDCA92",
"-X c #ECCF9E",
";X c #F1CF9B",
":X c #F0CA91",
">X c #EFD399",
",X c #FBD394",
"<X c #F4D995",
"1X c #FEDE93",
"2X c #FADD9B",
"3X c #F3D59A",
"4X c #FDE28C",
"5X c #FFE487",
"6X c #FFE997",
"7X c #FEE69B",
"8X c #FFE99B",
"9X c #FCE396",
"0X c #ECCEA7",
"qX c #EBD1A2",
"wX c #F4DCA3",
"eX c #FCDCA2",
"rX c #F5DBA6",
"tX c #FEE4A4",
"yX c #FEEDA4",
"uX c #FEEDA9",
"iX c #F9E4AA",
"pX c #FFF1AC",
"aX c #FFF0A4",
"sX c #F9E4B4",
"dX c #FCEAB1",
"fX c #FFF2B3",
"gX c #FFF3BB",
"hX c #FFF5C0",
"jX c #FFF9CF",
/* pixels */
"pXgXgXfXuX8X&XOXOX:XqX-X=XoXoX=X>X<X4XyXgXdXgXgXaXpXgXgXgXhX",
"gXgXfX6X6X6X,XOX.XT.T.).(.E.W.U.U.R.|.<XrXwXdXfXaXpXgXpXfXgX",
"jXgXyX|.5X9X,X^.G.R ~ v.S.V.7.^ ~ b.W.R.+X+X>XaXyXuXpXpXfXfX",
"gXaX6X|.1X7X).C.v . B 8.8.w.w.D h O K 7.) ) T.&X9XyXiXiXdXhX",
"fX8X|.[.&X&XA.P g   5 <.#.q.q.X.V + 5 S O o n.].$X<XeX2XeXuX",
"fX9X}.}.}.`.e.C @ + $.d.5.1.1.5...1 @.4     K D.T.R.*X,X1X1X",
"uX<X}.(.E.C.w.D $ e 2.h.u.t.y.s.<...1.$.> , F 7.R b.(.{.{.{.",
"2X#XY.K.v.L 8.p q d 1.g.p.p.p.g.5.%.6.$., 4 5 F o v.!.}.{.{.",
"%X/.n.~ P A U a u 8 >.u.g.k.a.k.6.>.y.0.2 5 4 , + 7.!.'.%X%X",
"#XP.^ O > 2 < s +.{ | :.g.k.k.k.y.1.u.<.p w 3 , 3 w.D.Q.%XtX",
"XXP.J + , u - ..2.| | -.a.k.a.a.y.4.u.2.a = % % ..0.B.U.@X9X",
"#XA.Z + 3 d t @.5.,.;.-.p.a.a.a.u.4.f.5.o.: ; % O.8.K N._.5X",
"%XW.U 1 u o.+.2.6.;.:.t.k.k.a.i.t.4.g.6.%.= = 0 O.4 h n.].iX",
":XE.L p d o.&.3.y.-.4.p.z.l.a.i.t.t.h.s.>.y 7 i i > o b.R.iX",
"#XH.W X.d 8 ,.4.u.:.u.k.c.z.k.a.t.t.l.j.5.o.O.O.0 j X b.).iX",
"J.( G ..o.[ ,.t.p.u.k.c.c.c.z.k.u.t.h.l.j.5.,.&.$ + N 7.Q.3X",
"M./ X D %.&.3.u.g.g.z.c.c.c.c.z.g.u.f.l.l.f.3.%.@ + V v.(.7X",
"_ G h D #.4.6.u.k.x.c.c.c.c.c.c.k.p.u.l.x.h.5.] % # D v.).wX",
"M.^ k w #.u.u.p.k.x.c.c.c.c.c.c.l.g.g.l.z.p.-.] 9 9 w W H.oX",
"K.^ v e %.4.t.i.g.x.c.x.c.c.c.c.l.g.l.z.l.t.;.{ 7 9 j E F.).",
"H.( x e +.-.4.u.i.l.x.l.c.c.c.c.l.k.z.z.g.:.;. .7 $ g E N.(.",
".XF.Q C o.-.t.t.y.f.f.f.l.x.x.x.k.k.z.l.u.4.-. .9 @ N L E.*X",
"+XJ.Q k p &.4.u.u.s.6.4.h.h.h.l.k.k.z.g.u.4.=.] $ < S ^ ~.qX",
"XXJ.W h C ..1.y.s.y.3.=.y.y.d.p.p.u.g.g.p.4.O.9 # V F /  X0X",
";XI.H j V D @.*.3.t.,.} &.,.,.=.&.>.4.u.6.} e * $ j j W L.0X",
"rX.X^ C 1 U 9.*.2.3.| { { [ [ 8 8 8 } =.&.f m k q k k ( ~.wX",
"sXXXM.H I 8.9.q.*.>.+.6 y t y & & : y 6 6 ; n k m I ^ Z.oX2X",
"dX;XT.^ W J Y I T T I - * * : b b b n n c l l c Y _ I.#X2XtX",
"uXeX=X.XI.P.Z.Z.Z.C.' ^ Y M c c c v ! ! ` _ ( G.I.oX;X1X7XtX",
"7X7X7XsX3X$X@X#XOX/.I.G.G.` ! ! / ( F.J.H.Y..X#XqXsXfX7X7X7X"
};
