/* XPM */
static char *_315ede437ee4d66e9485a1354a3aa6fYX7QUNedjJJgI88I[] = {
/* columns rows colors chars-per-pixel */
"30 30 211 2 ",
"   c #15ADDF",
".  c #1CB0DE",
"X  c #2AA8D5",
"o  c #2EAFD8",
"O  c #3FAFD1",
"+  c #2EB3DA",
"@  c #38B8DA",
"#  c #33BCDC",
"$  c #0FADE0",
"%  c #12ADE1",
"&  c #18B6E2",
"*  c #20ACE1",
"=  c #32AEE2",
"-  c #25B9E0",
";  c #25B2E4",
":  c #50B5CE",
">  c #48B8D5",
",  c #4BB8D5",
"<  c #54B9DD",
"1  c #40BAE0",
"2  c #3BC4DE",
"3  c #1DCAEA",
"4  c #2AC7E6",
"5  c #22C7E8",
"6  c #27CDE9",
"7  c #32C9E8",
"8  c #26D4ED",
"9  c #2CDBEF",
"0  c #3ED4E6",
"q  c #37DBEC",
"w  c #2DDFF1",
"e  c #37DFF1",
"r  c #3DE1EC",
"t  c #2EE1F3",
"y  c #3BE5F4",
"u  c #3DEAF5",
"i  c #32E0F0",
"p  c #4BCCDC",
"a  c #56C9D6",
"s  c #60C0D0",
"d  c #64CAD6",
"f  c #68CBD2",
"g  c #71CED1",
"h  c #66D8DD",
"j  c #72D4D5",
"k  c #78DDDB",
"l  c #76C6C9",
"z  c #78E6DD",
"x  c #48CDE9",
"c  c #51CDE7",
"v  c #56CAEC",
"b  c #45D3E3",
"n  c #4FD7E2",
"m  c #40DBE8",
"M  c #4BDCE6",
"N  c #57D6E0",
"B  c #50D8E2",
"V  c #59D6E6",
"C  c #50DEF3",
"Z  c #61CDED",
"A  c #7ACDED",
"S  c #4FE9EA",
"D  c #4DE7EC",
"F  c #51E3ED",
"G  c #5FE1EF",
"H  c #54EAEF",
"J  c #4DE6F3",
"K  c #45EAF4",
"L  c #4EEBF6",
"P  c #45E1F0",
"I  c #53ECF5",
"U  c #5CEBF6",
"Y  c #55E6F4",
"T  c #68EAE7",
"R  c #68EDEA",
"E  c #7EEFEC",
"W  c #7AECE0",
"Q  c #64ECF6",
"!  c #6CEFF8",
"~  c #6CEEF2",
"^  c #72EAF6",
"/  c #72E4F2",
"(  c #71F0F8",
")  c #7CF1F9",
"_  c #BFDCBA",
"`  c #FFE79A",
"'  c #FFE99E",
"]  c #CCE3BD",
"[  c #C1E9BF",
"{  c #C8EAB9",
"}  c #D4E5BD",
"|  c #DBE7BC",
" . c #D3EFBE",
".. c #D9EDBC",
"X. c #D8E6B5",
"o. c #DCF1BB",
"O. c #E8E9A9",
"+. c #FDEBA4",
"@. c #FEEDAB",
"#. c #FFF2AD",
"$. c #E6EDB6",
"%. c #EAECB4",
"&. c #E3EABC",
"*. c #EAEDBA",
"=. c #F0EDB1",
"-. c #E2F1BD",
";. c #ECF1BA",
":. c #FFF3B5",
">. c #F4F2BC",
",. c #FFF4BB",
"<. c #F0F1B5",
"1. c #8ECCCA",
"2. c #88CBC8",
"3. c #93CFCA",
"4. c #8DD7CF",
"5. c #8FDFCE",
"6. c #94D5CB",
"7. c #9CD6C9",
"8. c #9DD2C5",
"9. c #80CCD5",
"0. c #86DAD1",
"q. c #8BDDD5",
"w. c #A1D7C1",
"e. c #AED9CF",
"r. c #A5DCC8",
"t. c #B4DBC5",
"y. c #BCDDC2",
"u. c #95E9CF",
"i. c #88E9D7",
"p. c #8FECDB",
"a. c #89E0D3",
"s. c #90E7D1",
"d. c #96EAD6",
"f. c #B2EACA",
"g. c #BCEDCB",
"h. c #B2E5CB",
"j. c #A8E8D0",
"k. c #A5ECD0",
"l. c #B2EFD0",
"z. c #B6EBD8",
"x. c #AAF1D9",
"c. c #B6F1DA",
"v. c #84DEF3",
"b. c #98D5EB",
"n. c #84ECE3",
"m. c #98EEE2",
"M. c #96F0E6",
"N. c #94F1EB",
"B. c #9BF1E8",
"V. c #85E0F3",
"C. c #9EE8F6",
"Z. c #96ECF8",
"A. c #88F2F9",
"S. c #94F3FA",
"D. c #9BF4FA",
"F. c #94F1F0",
"G. c #B4E1E8",
"H. c #ABF3EB",
"J. c #B3F3ED",
"K. c #A6EFF9",
"L. c #A5F4F4",
"P. c #ACF5F6",
"I. c #ABF6FB",
"U. c #BCF6F2",
"Y. c #B8F7FC",
"T. c #BFF8FC",
"R. c #B5F7FC",
"E. c #C1E2C5",
"W. c #CAE2C3",
"Q. c #C7E8C7",
"!. c #CCE9C3",
"~. c #CAEFCF",
"^. c #D3E5C2",
"/. c #D2EDC4",
"(. c #DAEBCA",
"). c #C7F1CF",
"_. c #D4F1C6",
"`. c #D1F0C8",
"'. c #DEF2C5",
"]. c #CFF3DF",
"[. c #DAF3D7",
"{. c #E8EEC9",
"}. c #EBEDC3",
"|. c #E5F3C4",
" X c #EDF3C1",
".X c #E2F3CA",
"XX c #ECF5CB",
"oX c #FFF6C2",
"OX c #FFF7C9",
"+X c #FFF8CC",
"@X c #F2F2C0",
"#X c #E0F6D6",
"$X c #EBF7D3",
"%X c #FFF9D1",
"&X c #D7F9EF",
"*X c #D5F3E9",
"=X c #CAF5FB",
"-X c #C4F8FC",
";X c #C9F9FB",
":X c #DAF6FC",
">X c #D5FAFD",
",X c #DDFCFD",
"<X c #D9FAF5",
"1X c #C8F5E7",
"2X c #ECFCF4",
"3X c #E2FCFD",
"4X c #ECFDFD",
"5X c #EAF7FB",
"6X c #F5FDFE",
"7X c #FEFFFF",
"8X c #FBFDF3",
/* pixels */
"#.:.oX:.,.,.:.W.9.+ 5 0 z k.'.%.=.%.$.*.@X:.,.,.@.:.,.,.,.,.",
",.,.:.:.:.,.,.!.0.6 8 i M j r.} } _ t.W.{.,.,.,.oX,.,.@.:.,.",
"%XoX:.#.:.:.,._.u.r t 9 5 2 s t.t.8.1.e.(.@X,.,.OXoX:.#.:.:.",
",.,.,.:.,.,.:._.d.S i 8 3 + , r.E.y.y.^.}.,.,.oX,.,.,.:.,.,.",
",.,.,.,.,.,.,.|.).z B 4 $ % + j 0.4.6.y.&.>.:.:.,.,.,.,.,.,.",
",.,.:.,.,.:.,.>...h.j # % $ & 0 b p d 7.^.>.:.:.,.,.,.,.,.:.",
":.,.,.,.,.,.:.:.>.!.a.b 6 5 8 y e q n q.Q.;.,.,.,.,.,.:.,.,.",
",.,.,.oX,.,.:.:.>._.s.F t w y Q U J M h 6.] %.,.,.,.,.oX,.,.",
",.,.,.OXoX,.,.>.;.[ i.H u K U A.) Q P b a r.| ,.,.,.,.+XoX,.",
",.,.,.,.,.,.,.&.t.g N J Q A.S.A.! I y w 0 4./.,.:.,.,.,.,.,.",
",.,.,.,.:.:.,.^.6.< c / D.R.T.D.( I y t r p.!.,.,.,.,.,.,.:.",
",.:.:.,.,.@.,.W.2.@ v K.=X3X3X-XD.! L u K n.g.*.,.,.:.,.:.#.",
",.:.@.:.,.,.:.W.q.V v.=X4X7X7X4X>XR.S.! J N f 2.$.:.#.:.,.,.",
",.:.:.oX,.>.] r.k G Z.>X6X7X7X7X6X3X-XD.^ c @ : | :.:.oX,.,.",
",.,.:.+XoX&.1.f N U S.>X6X7X7X7X7X7X4X;XK.v * o ^.,.,.+X,.:.",
":.,.,.,.@.X.> & 4 Y D.>X6X7X7X7X7X7X7X7X,Xv.x 0 ..,.,.:.:.#.",
":.:.,.,.:.X.X   7 ^ I.,X6X7X7X7X7X7X7X7X4XZ.C m ..:.,.,.:.#.",
"#.:.,.,.,.} X & v Z.=X4X7X7X7X7X7X7X7X7X4XD.U F o.:.,.,.,.:.",
"#.oX+X,.,.^.X = A :X6X7X7X7X7X7X7X7X7X7X4XD.I S o.oX+X,.,.,.",
"#.,.oX,.,.} : < b.5X7X7X7X7X7X7X7X7X7X7X4XI.( R o.,.oX,.,.,.",
"#.:.,.,.,.&.l 9.G.5X7X7X7X7X7X7X7X7X7X7X6X-XD.N.;.:.:.,.,.,.",
"#.,.,.:.,.*.h.z.*X8X7X7X7X7X7X7X7X7X7X7X7X6X4X2XoX,.,.:.,.,.",
",.,.,.,.oXXXp.B.-X6X7X7X7X7X7X7X7X7X7X7X7X7X7X8XoX,.,.,.oXOX",
",.,.,.,.OX#XR ~ L.4X7X7X7X7X7X7X7X7X7X7X7X7X7X8XoX,.,.,.oX%X",
"#.,.,.,.,..XW E P.6X7X7X7X7X7X7X7X7X7X7X7X4X,X&X>.:.,.,.,.oX",
",.,.:.:.:.>.l.c.1X3X6X7X7X7X7X7X7X7X7X6X2X-XP.H.XX,.:.:.:.,.",
"+XoX:.#.:.>. X'.[.<X,X6X7X7X6X7X6X6X4X,X-XL.M.M.$XoX:.#.:.:.",
",.,.,.:.,.,.,.'.c.B.U.<X2X2X3X,X,X,X;XP.N.x.).|.,.,.,.:.,.,.",
"@.#.@.,.:.@.+.*.`.g.~.[.].J.D.S.S.S.N.m.k.{ $.>.,.,.:.#.@.@.",
"` ` ' :.@.` ` @.<.O.O.o.f.n.I L L I T u.{ O.+.#.,.,.#.' ` ` "
};
